<?xml version="1.0" encoding="utf-8"?>
<!-- Chandan Shastri's Logo - chandanshastri.github.io -->
<svg version="1.1" id="Layer_1" xmlns="http://www.w3.org/2000/svg" xmlns:xlink="http://www.w3.org/1999/xlink" x="0px" y="0px"
	 viewBox="0 0 288 375" style="enable-background:new 0 0 288 375;" xml:space="preserve">
<style type="text/css">
	.st0{display:none;}
</style>
<g transform="translate(0.000000,375.000000) scale(0.100000,-0.100000)">
	<path class="st0" d="M2848,3745c-3-3-645-5-1427-5H0V1870V0h1440h1440v1875C2880,3779,2880,3777,2848,3745z M2762,3569
		c2-88-1-143-7-145c-5-2-606-3-1334-2l-1324,3l-1,138c0,76,1,141,3,143s602,4,1332,4h1328L2762,3569z M2760,1725
		c0-877,0-1598,0-1602c0-5-599-8-1331-8H97l1,1595c0,877,1,1598,1,1603c1,4,600,7,1331,7h1330V1725z"/>
	<path class="st0" d="M1610,3571v-81h50c41,0,56,5,75,25c37,36,33,105-7,126c-16,9-19,8-13-2c6-8,4-11-6-7c-42,16-58,18-64,8
		c-5-8-11-8-21,1C1612,3651,1610,3640,1610,3571z"/>
	<path class="st0" d="M1860,3572v-83l51,3c40,2,55,8,66,25c13,19,12,24-5,41c-18,18-19,21-4,36c34,34-34,71-76,42c-9-7-17-5-23,5
		C1864,3650,1860,3626,1860,3572z"/>
	<path d="M2005,3253c-11-2-89-18-174-34c-504-100-969-296-1167-493c-165-166-153-343,34-480c100-73,366-187,607-261
		c50-15,137-45,195-67c115-44,114-44,213-28l67,12v128v128l-137,47c-326,113-408,148-496,212c-49,36-87,95-87,135
		c1,129,208,261,560,358c120,34,376,86,466,96c34,3,67,10,73,14c9,5-3,41-40,123C2064,3266,2064,3266,2005,3253z M2021,3219
		c6-12,7-25,2-29c-4-4-62-17-128-30c-353-67-724-192-951-321c-107-61-224-148-264-198c-38-46-39-26-1,25c167,228,643,447,1206,553
		C2014,3243,2007,3243,2021,3219z"/>
	<path d="M1840,1997c0-117-2-136-18-150c-10-10-27-17-38-17c-10,0-29-3-42-6c-21-6-20-8,18-36c56-41,92-106,93-167
		c2-116-115-219-349-311c-180-70-496-147-744-180c-47-6-86-13-88-15c-3-2,123-224,133-233c2-3,62,6,132,18
		c625,108,1098,299,1315,528c115,122,152,243,113,364c-24,72-113,158-222,216c-66,34-279,122-298,122C1842,2130,1840,2070,1840,1997
		z M1930,1411c0-19-127-104-225-151c-121-59-265-110-440-155c-291-75-413-87-403-38c2,13,30,21,123,39c306,56,628,156,810,250
		C1924,1422,1930,1425,1930,1411z"/>
	<path class="st0" d="M822,673c3-80,5-88,23-88c17,0,19,6,17,38l-4,37h66h66v-39c0-32,3-39,18-37c14,2,17,16,20,89c2,55-1,87-8,87
		c-5,0-10-6-10-12c0-9-4-8-11,2c-8,11-9,4-7-28l4-43l-66,3l-65,3v38c0,37-9,49-18,25c-4-10-6-10-6,0c-1,6-6,12-11,12
		C823,760,820,728,822,673z"/>
	<path class="st0" d="M1117,678c-26-47-47-88-47-90c0-15,45,2,53,20c9,19,18,22,62,22s53-3,62-22c8-18,53-35,53-20s-94,174-98,164
		c-2-7-10-12-17-12s-15,5-17,12C1166,758,1143,725,1117,678z"/>
	<path class="st0" d="M1342,675c3-75,6-89,21-91s17,7,17,69v72l69-70c94-96,105-94,109,18c2,55-1,87-8,87c-5,0-10-6-10-12
		c0-9-4-8-11,2c-7,11-9-6-7-61c3-59,0-75-9-72c-7,3-13,10-13,17c-1,6-26,38-56,71c-43,47-56,57-63,46c-8-12-12-13-26-1
		S1339,755,1342,675z"/>
	<path class="st0" d="M1622,673l3-88l65,1c125,2,191,74,127,138c-20,20-32,23-100,22c-42-1-77,2-77,7c0,4-5,7-10,7
		C1623,760,1620,728,1622,673z M1754,730c63-24,50-113-18-125c-62-12-71-6-74,54c-2,29-1,60,2,67C1670,742,1717,744,1754,730z"/>
	<path class="st0" d="M1938,737c-16-23-78-144-78-150c0-14,35,1,47,20c13,19,24,23,68,23s53-3,62-22c5-12,19-22,31-23
		c13-1,21,1,20,4c-48,96-91,171-99,171c-5,0-7-4-4-10c3-5-3-10-15-10s-18,5-15,10C1968,771,1952,759,1938,737z"/>
	<path class="st0" d="M2131,673c-1-81,1-91,17-89c14,2,18,16,22,71l5,68l62-70c45-51,68-69,85-68c21,2,23,6,24,88c1,48-3,87-7,87
		c-5,0-9-6-9-12c0-9-4-8-10,2c-8,11-10-6-9-58c2-78-5-99-20-61c-11,29-121,139-121,121c0-16-27-16-33,1C2134,759,2131,724,2131,673z
		"/>
	<path class="st0" d="M961,393c-1-86,0-91,19-86c15,4,20,14,20,39v34h65h65v-38c0-31,4-38,20-38c19,0,20,7,20,89c0,76-2,88-14,78
		c-11-9-15-9-20,1c-3,7-5-6-3-29l3-43h-68h-68v41c0,34-2,39-14,30c-11-9-15-9-19,1C964,479,961,444,961,393z"/>
	<path class="st0" d="M1350,473c0-5-10-10-22-9c-18,1-32-13-65-69c-23-38-42-75-43-81c0-20,31-11,47,13c13,19,24,23,68,23
		c45,0,55-4,69-25c16-25,46-34,46-15c0,12-76,149-91,165C1353,480,1350,480,1350,473z"/>
	<path class="st0" d="M1922,393c2-70,6-88,18-88c10,0,17,13,20,35c7,48,30,49,80,4c38-35,80-52,80-33c0,20-85,78-119,81
		c-33,3-36,6-36,33c0,33,18,41,62,30c22-5,25-10,19-35c-7-35,11-40,38-11c14,15,15,24,7,39c-9,16-21,19-80,19c-38,0-74,4-80,8
		C1922,480,1920,458,1922,393z"/>
</g>
</svg>
